<svg width="32" height="32" viewBox="0 0 32 32" fill="none" xmlns="http://www.w3.org/2000/svg">
<path d="M16 32C24.8366 32 32 24.8366 32 16C32 7.16344 24.8366 0 16 0C7.16344 0 0 7.16344 0 16C0 24.8366 7.16344 32 16 32Z" fill="black"/>
<path d="M8.28711 13.5791H11.5372V23.0004H8.28711V13.5791Z" fill="white"/>
<path d="M19.9251 13.2666C18.5 13.2666 17.6501 13.7701 16.7501 14.8727V13.5783H13.5V22.9996H16.7749V17.8934C16.7749 16.8145 17.3499 15.7598 18.6499 15.7598C19.9499 15.7598 20.7248 16.8145 20.7248 17.8693V22.9996H24V17.6538C24 13.9378 21.3749 13.2666 19.9251 13.2666Z" fill="white"/>
<path d="M10 9C9.02282 9 8.25 9.78613 8.25 10.75C8.25 11.7139 9.02282 12.5 10 12.5C10.9772 12.5 11.75 11.7139 11.75 10.75C11.75 9.78613 10.9772 9 10 9Z" fill="white"/>
</svg>

